<?xml version="1.0" encoding="UTF-8" standalone="no"?>
<!DOCTYPE svg PUBLIC "-//W3C//DTD SVG 1.1//EN"
 "http://www.w3.org/Graphics/SVG/1.1/DTD/svg11.dtd">
<!-- Generated by graphviz version 8.0.3 (20230418.1244)
 -->
<!-- Title: snakemake_dag Pages: 1 -->
<svg width="513pt" height="332pt"
 viewBox="0.00 0.00 512.50 332.00" xmlns="http://www.w3.org/2000/svg" xmlns:xlink="http://www.w3.org/1999/xlink">
<g id="graph0" class="graph" transform="scale(1 1) rotate(0) translate(4 328)">
<title>snakemake_dag</title>
<polygon fill="white" stroke="none" points="-4,4 -4,-328 508.5,-328 508.5,4 -4,4"/>
<!-- 0 -->
<g id="node1" class="node">
<title>0</title>
<path fill="none" stroke="#56a2d8" stroke-width="2" stroke-dasharray="5,2" d="M406.5,-36C406.5,-36 376.5,-36 376.5,-36 370.5,-36 364.5,-30 364.5,-24 364.5,-24 364.5,-12 364.5,-12 364.5,-6 370.5,0 376.5,0 376.5,0 406.5,0 406.5,0 412.5,0 418.5,-6 418.5,-12 418.5,-12 418.5,-24 418.5,-24 418.5,-30 412.5,-36 406.5,-36"/>
<text text-anchor="middle" x="391.5" y="-15.5" font-family="sans" font-size="10.00">all</text>
</g>
<!-- 1 -->
<g id="node2" class="node">
<title>1</title>
<path fill="none" stroke="#56d8c9" stroke-width="2" stroke-dasharray="5,2" d="M422.5,-108C422.5,-108 360.5,-108 360.5,-108 354.5,-108 348.5,-102 348.5,-96 348.5,-96 348.5,-84 348.5,-84 348.5,-78 354.5,-72 360.5,-72 360.5,-72 422.5,-72 422.5,-72 428.5,-72 434.5,-78 434.5,-84 434.5,-84 434.5,-96 434.5,-96 434.5,-102 428.5,-108 422.5,-108"/>
<text text-anchor="middle" x="391.5" y="-87.5" font-family="sans" font-size="10.00">picklist_picnic</text>
</g>
<!-- 1&#45;&gt;0 -->
<g id="edge1" class="edge">
<title>1&#45;&gt;0</title>
<path fill="none" stroke="grey" stroke-width="2" d="M391.5,-71.34C391.5,-64.75 391.5,-57.08 391.5,-49.67"/>
<polygon fill="grey" stroke="grey" stroke-width="2" points="395,-49.9 391.5,-39.9 388,-49.9 395,-49.9"/>
</g>
<!-- 2 -->
<g id="node3" class="node">
<title>2</title>
<path fill="none" stroke="#78d856" stroke-width="2" stroke-dasharray="5,2" d="M358.5,-180C358.5,-180 296.5,-180 296.5,-180 290.5,-180 284.5,-174 284.5,-168 284.5,-168 284.5,-156 284.5,-156 284.5,-150 290.5,-144 296.5,-144 296.5,-144 358.5,-144 358.5,-144 364.5,-144 370.5,-150 370.5,-156 370.5,-156 370.5,-168 370.5,-168 370.5,-174 364.5,-180 358.5,-180"/>
<text text-anchor="middle" x="327.5" y="-159.5" font-family="sans" font-size="10.00">run_fun_script</text>
</g>
<!-- 2&#45;&gt;1 -->
<g id="edge2" class="edge">
<title>2&#45;&gt;1</title>
<path fill="none" stroke="grey" stroke-width="2" d="M343.65,-143.34C350.57,-135.77 358.81,-126.75 366.49,-118.35"/>
<polygon fill="grey" stroke="grey" stroke-width="2" points="368.97,-120.64 373.13,-110.9 363.8,-115.92 368.97,-120.64"/>
</g>
<!-- 3 -->
<g id="node4" class="node">
<title>3</title>
<path fill="none" stroke="#d8a456" stroke-width="2" stroke-dasharray="5,2" d="M198,-252C198,-252 31,-252 31,-252 25,-252 19,-246 19,-240 19,-240 19,-228 19,-228 19,-222 25,-216 31,-216 31,-216 198,-216 198,-216 204,-216 210,-222 210,-228 210,-228 210,-240 210,-240 210,-246 204,-252 198,-252"/>
<text text-anchor="middle" x="114.5" y="-231.5" font-family="sans" font-size="10.00">get_assembly_summary_identifiers</text>
</g>
<!-- 3&#45;&gt;2 -->
<g id="edge4" class="edge">
<title>3&#45;&gt;2</title>
<path fill="none" stroke="grey" stroke-width="2" d="M169.08,-215.06C200.52,-204.73 239.97,-191.77 271.63,-181.36"/>
<polygon fill="grey" stroke="grey" stroke-width="2" points="273.38,-183.81 281.79,-177.36 271.2,-177.16 273.38,-183.81"/>
</g>
<!-- 4 -->
<g id="node5" class="node">
<title>4</title>
<path fill="none" stroke="#56d87b" stroke-width="2" stroke-dasharray="5,2" d="M217,-324C217,-324 12,-324 12,-324 6,-324 0,-318 0,-312 0,-312 0,-300 0,-300 0,-294 6,-288 12,-288 12,-288 217,-288 217,-288 223,-288 229,-294 229,-300 229,-300 229,-312 229,-312 229,-318 223,-324 217,-324"/>
<text text-anchor="middle" x="114.5" y="-303.5" font-family="sans" font-size="10.00">download_all_available_genbank_genomes</text>
</g>
<!-- 4&#45;&gt;3 -->
<g id="edge6" class="edge">
<title>4&#45;&gt;3</title>
<path fill="none" stroke="grey" stroke-width="2" d="M114.5,-287.34C114.5,-280.75 114.5,-273.08 114.5,-265.67"/>
<polygon fill="grey" stroke="grey" stroke-width="2" points="118,-265.9 114.5,-255.9 111,-265.9 118,-265.9"/>
</g>
<!-- 5 -->
<g id="node6" class="node">
<title>5</title>
<path fill="none" stroke="#d85656" stroke-width="2" stroke-dasharray="5,2" d="M415,-252C415,-252 240,-252 240,-252 234,-252 228,-246 228,-240 228,-240 228,-228 228,-228 228,-222 234,-216 240,-216 240,-216 415,-216 415,-216 421,-216 427,-222 427,-228 427,-228 427,-240 427,-240 427,-246 421,-252 415,-252"/>
<text text-anchor="middle" x="327.5" y="-237" font-family="sans" font-size="10.00">sourmash_manifest_destiny</text>
<text text-anchor="middle" x="327.5" y="-226" font-family="sans" font-size="10.00">db: gtdb&#45;rs207.genomic&#45;reps.dna.k31</text>
</g>
<!-- 5&#45;&gt;2 -->
<g id="edge5" class="edge">
<title>5&#45;&gt;2</title>
<path fill="none" stroke="grey" stroke-width="2" d="M327.5,-215.34C327.5,-208.75 327.5,-201.08 327.5,-193.67"/>
<polygon fill="grey" stroke="grey" stroke-width="2" points="331,-193.9 327.5,-183.9 324,-193.9 331,-193.9"/>
</g>
<!-- 6 -->
<g id="node7" class="node">
<title>6</title>
<path fill="none" stroke="#c6d856" stroke-width="2" stroke-dasharray="5,2" d="M492.5,-324C492.5,-324 312.5,-324 312.5,-324 306.5,-324 300.5,-318 300.5,-312 300.5,-312 300.5,-300 300.5,-300 300.5,-294 306.5,-288 312.5,-288 312.5,-288 492.5,-288 492.5,-288 498.5,-288 504.5,-294 504.5,-300 504.5,-300 504.5,-312 504.5,-312 504.5,-318 498.5,-324 492.5,-324"/>
<text text-anchor="middle" x="402.5" y="-303.5" font-family="sans" font-size="10.00">download_sourmash_gather_database</text>
</g>
<!-- 6&#45;&gt;1 -->
<g id="edge3" class="edge">
<title>6&#45;&gt;1</title>
<path fill="none" stroke="grey" stroke-width="2" d="M417.17,-287.09C424.2,-277.35 431.87,-264.71 435.5,-252 448.64,-206.05 426.58,-152.48 409.23,-120.18"/>
<polygon fill="grey" stroke="grey" stroke-width="2" points="411.84,-117.91 403.89,-110.91 405.74,-121.34 411.84,-117.91"/>
</g>
<!-- 6&#45;&gt;5 -->
<g id="edge7" class="edge">
<title>6&#45;&gt;5</title>
<path fill="none" stroke="grey" stroke-width="2" d="M383.57,-287.34C375.2,-279.52 365.17,-270.16 355.93,-261.53"/>
<polygon fill="grey" stroke="grey" stroke-width="2" points="358.38,-259.17 348.68,-254.9 353.6,-264.28 358.38,-259.17"/>
</g>
</g>
</svg>
