<?xml version="1.0" encoding="UTF-8" standalone="no"?>
<!DOCTYPE svg PUBLIC "-//W3C//DTD SVG 1.1//EN"
 "http://www.w3.org/Graphics/SVG/1.1/DTD/svg11.dtd">
<!-- Generated by graphviz version 8.0.3 (20230418.1244)
 -->
<!-- Title: snakemake_dag Pages: 1 -->
<svg width="491pt" height="332pt"
 viewBox="0.00 0.00 490.50 332.00" xmlns="http://www.w3.org/2000/svg" xmlns:xlink="http://www.w3.org/1999/xlink">
<g id="graph0" class="graph" transform="scale(1 1) rotate(0) translate(4 328)">
<title>snakemake_dag</title>
<polygon fill="white" stroke="none" points="-4,4 -4,-328 486.5,-328 486.5,4 -4,4"/>
<!-- 0 -->
<g id="node1" class="node">
<title>0</title>
<path fill="none" stroke="#d8a456" stroke-width="2" d="M373.5,-36C373.5,-36 343.5,-36 343.5,-36 337.5,-36 331.5,-30 331.5,-24 331.5,-24 331.5,-12 331.5,-12 331.5,-6 337.5,0 343.5,0 343.5,0 373.5,0 373.5,0 379.5,0 385.5,-6 385.5,-12 385.5,-12 385.5,-24 385.5,-24 385.5,-30 379.5,-36 373.5,-36"/>
<text text-anchor="middle" x="358.5" y="-15.5" font-family="sans" font-size="10.00">all</text>
</g>
<!-- 1 -->
<g id="node2" class="node">
<title>1</title>
<path fill="none" stroke="#78d856" stroke-width="2" d="M389.5,-108C389.5,-108 327.5,-108 327.5,-108 321.5,-108 315.5,-102 315.5,-96 315.5,-96 315.5,-84 315.5,-84 315.5,-78 321.5,-72 327.5,-72 327.5,-72 389.5,-72 389.5,-72 395.5,-72 401.5,-78 401.5,-84 401.5,-84 401.5,-96 401.5,-96 401.5,-102 395.5,-108 389.5,-108"/>
<text text-anchor="middle" x="358.5" y="-87.5" font-family="sans" font-size="10.00">picklist_picnic</text>
</g>
<!-- 1&#45;&gt;0 -->
<g id="edge1" class="edge">
<title>1&#45;&gt;0</title>
<path fill="none" stroke="grey" stroke-width="2" d="M358.5,-71.34C358.5,-64.75 358.5,-57.08 358.5,-49.67"/>
<polygon fill="grey" stroke="grey" stroke-width="2" points="362,-49.9 358.5,-39.9 355,-49.9 362,-49.9"/>
</g>
<!-- 2 -->
<g id="node3" class="node">
<title>2</title>
<path fill="none" stroke="#56d87b" stroke-width="2" d="M336.5,-180C336.5,-180 274.5,-180 274.5,-180 268.5,-180 262.5,-174 262.5,-168 262.5,-168 262.5,-156 262.5,-156 262.5,-150 268.5,-144 274.5,-144 274.5,-144 336.5,-144 336.5,-144 342.5,-144 348.5,-150 348.5,-156 348.5,-156 348.5,-168 348.5,-168 348.5,-174 342.5,-180 336.5,-180"/>
<text text-anchor="middle" x="305.5" y="-159.5" font-family="sans" font-size="10.00">run_fun_script</text>
</g>
<!-- 2&#45;&gt;1 -->
<g id="edge3" class="edge">
<title>2&#45;&gt;1</title>
<path fill="none" stroke="grey" stroke-width="2" d="M318.87,-143.34C324.42,-136.01 330.99,-127.34 337.17,-119.18"/>
<polygon fill="grey" stroke="grey" stroke-width="2" points="340.7,-120.99 343.95,-110.9 335.12,-116.76 340.7,-120.99"/>
</g>
<!-- 3 -->
<g id="node4" class="node">
<title>3</title>
<path fill="none" stroke="#c6d856" stroke-width="2" d="M198,-252C198,-252 31,-252 31,-252 25,-252 19,-246 19,-240 19,-240 19,-228 19,-228 19,-222 25,-216 31,-216 31,-216 198,-216 198,-216 204,-216 210,-222 210,-228 210,-228 210,-240 210,-240 210,-246 204,-252 198,-252"/>
<text text-anchor="middle" x="114.5" y="-231.5" font-family="sans" font-size="10.00">get_assembly_summary_identifiers</text>
</g>
<!-- 3&#45;&gt;2 -->
<g id="edge4" class="edge">
<title>3&#45;&gt;2</title>
<path fill="none" stroke="grey" stroke-width="2" d="M163.19,-215.15C189.55,-205.5 222.23,-193.52 249.62,-183.48"/>
<polygon fill="grey" stroke="grey" stroke-width="2" points="251.61,-186.75 259.79,-180.02 249.2,-180.17 251.61,-186.75"/>
</g>
<!-- 4 -->
<g id="node5" class="node">
<title>4</title>
<path fill="none" stroke="#56a2d8" stroke-width="2" d="M217,-324C217,-324 12,-324 12,-324 6,-324 0,-318 0,-312 0,-312 0,-300 0,-300 0,-294 6,-288 12,-288 12,-288 217,-288 217,-288 223,-288 229,-294 229,-300 229,-300 229,-312 229,-312 229,-318 223,-324 217,-324"/>
<text text-anchor="middle" x="114.5" y="-303.5" font-family="sans" font-size="10.00">download_all_available_genbank_genomes</text>
</g>
<!-- 4&#45;&gt;3 -->
<g id="edge6" class="edge">
<title>4&#45;&gt;3</title>
<path fill="none" stroke="grey" stroke-width="2" d="M114.5,-287.34C114.5,-280.75 114.5,-273.08 114.5,-265.67"/>
<polygon fill="grey" stroke="grey" stroke-width="2" points="118,-265.9 114.5,-255.9 111,-265.9 118,-265.9"/>
</g>
<!-- 5 -->
<g id="node6" class="node">
<title>5</title>
<path fill="none" stroke="#56d8c9" stroke-width="2" d="M371,-252C371,-252 240,-252 240,-252 234,-252 228,-246 228,-240 228,-240 228,-228 228,-228 228,-222 234,-216 240,-216 240,-216 371,-216 371,-216 377,-216 383,-222 383,-228 383,-228 383,-240 383,-240 383,-246 377,-252 371,-252"/>
<text text-anchor="middle" x="305.5" y="-231.5" font-family="sans" font-size="10.00">sourmash_manifest_destiny</text>
</g>
<!-- 5&#45;&gt;2 -->
<g id="edge5" class="edge">
<title>5&#45;&gt;2</title>
<path fill="none" stroke="grey" stroke-width="2" d="M305.5,-215.34C305.5,-208.75 305.5,-201.08 305.5,-193.67"/>
<polygon fill="grey" stroke="grey" stroke-width="2" points="309,-193.9 305.5,-183.9 302,-193.9 309,-193.9"/>
</g>
<!-- 6 -->
<g id="node7" class="node">
<title>6</title>
<path fill="none" stroke="#d85656" stroke-width="2" d="M470.5,-324C470.5,-324 290.5,-324 290.5,-324 284.5,-324 278.5,-318 278.5,-312 278.5,-312 278.5,-300 278.5,-300 278.5,-294 284.5,-288 290.5,-288 290.5,-288 470.5,-288 470.5,-288 476.5,-288 482.5,-294 482.5,-300 482.5,-300 482.5,-312 482.5,-312 482.5,-318 476.5,-324 470.5,-324"/>
<text text-anchor="middle" x="380.5" y="-303.5" font-family="sans" font-size="10.00">download_sourmash_gather_database</text>
</g>
<!-- 6&#45;&gt;1 -->
<g id="edge2" class="edge">
<title>6&#45;&gt;1</title>
<path fill="none" stroke="grey" stroke-width="2" d="M385.08,-287.47C387.52,-277.22 390.27,-263.97 391.5,-252 396.26,-205.6 381.49,-152.81 370.18,-120.71"/>
<polygon fill="grey" stroke="grey" stroke-width="2" points="373.5,-118.87 366.77,-110.69 366.93,-121.28 373.5,-118.87"/>
</g>
<!-- 6&#45;&gt;5 -->
<g id="edge7" class="edge">
<title>6&#45;&gt;5</title>
<path fill="none" stroke="grey" stroke-width="2" d="M361.57,-287.34C353.2,-279.52 343.17,-270.16 333.93,-261.53"/>
<polygon fill="grey" stroke="grey" stroke-width="2" points="336.38,-259.17 326.68,-254.9 331.6,-264.28 336.38,-259.17"/>
</g>
</g>
</svg>
